<svg xmlns="http://www.w3.org/2000/svg" version="1.1" xmlns:xlink="http://www.w3.org/1999/xlink" xmlns:svgjs="http://svgjs.dev/svgjs" width="1440" height="560" preserveAspectRatio="none" viewBox="0 0 1440 560"><g mask="url(&quot;#SvgjsMask1041&quot;)" fill="none"><path d="M -525.3830811304405,198 C -429.38,226.4 -237.38,332.8 -45.383081130440424,340 C 146.62,347.2 242.62,212 434.6169188695596,234 C 626.62,256 722.62,455.8 914.6169188695595,450 C 1106.62,444.2 1289.54,200.8 1394.6169188695596,205 C 1499.69,209.2 1430.92,417.8 1440,471" stroke="rgba(255, 255, 255, 1)" stroke-width="2"></path><path d="M -198.452754354145,478 C -102.45,423.4 89.55,201 281.547245645855,205 C 473.55,209 569.55,511.2 761.547245645855,498 C 953.55,484.8 1049.55,170.4 1241.5472456458551,139 C 1433.55,107.6 1681.86,324.8 1721.5472456458551,341 C 1761.24,357.2 1496.31,244.2 1440,220" stroke="rgba(255, 255, 255, 1)" stroke-width="2"></path><path d="M -654.3026982409241,182 C -558.3,219.6 -366.3,362 -174.3026982409241,370 C 17.7,378 113.7,197.2 305.6973017590759,222 C 497.7,246.8 593.7,490.6 785.6973017590759,494 C 977.7,497.4 1134.84,252.6 1265.6973017590758,239 C 1396.56,225.4 1405.14,388.6 1440,426" stroke="rgba(255, 255, 255, 1)" stroke-width="2"></path><path d="M -546.9370494197967,277 C -450.94,287 -258.94,357.6 -66.9370494197967,327 C 125.06,296.4 221.06,109.2 413.0629505802033,124 C 605.06,138.8 701.06,373.4 893.0629505802033,401 C 1085.06,428.6 1263.68,283.4 1373.0629505802033,262 C 1482.45,240.6 1426.61,287.6 1440,294" stroke="rgba(255, 255, 255, 1)" stroke-width="2"></path></g><defs><mask id="SvgjsMask1041"><rect width="1440" height="560" fill="#ffffff"></rect></mask></defs></svg>